<svg width="52" height="47" viewBox="0 0 52 47" fill="none" xmlns="http://www.w3.org/2000/svg">
<g filter="url(#filter0_b_524_6320)">
<rect y="0.896484" width="45.5001" height="35.75" rx="9" fill="url(#paint0_linear_524_6320)"/>
</g>
<g filter="url(#filter1_b_524_6320)">
<rect x="6.5" y="10.6465" width="45.5001" height="35.75" rx="9" fill="#BFB5FF" fill-opacity="0.6"/>
<rect x="6.80595" y="10.9524" width="44.8882" height="35.1381" rx="8.69405" stroke="url(#paint1_linear_524_6320)" stroke-width="0.611895"/>
</g>
<path d="M39 43.1465L21.2229 43.1465C16.6955 43.1465 14.4318 43.1465 13.4517 41.8977C13.2018 41.5794 13.0133 41.2174 12.8958 40.8301C12.4349 39.311 13.733 37.4565 16.3293 33.7475L16.8961 32.9378C18.6579 30.421 19.5387 29.1626 20.7715 28.8851C21.0933 28.8127 21.4242 28.7894 21.753 28.8162C23.0124 28.9187 24.0605 30.0416 26.1567 32.2876L29.0877 35.428C29.853 36.2479 30.2356 36.6579 30.6275 36.8936C31.7396 37.5625 33.1424 37.509 34.2004 36.7574C34.5732 36.4926 34.9235 36.0547 35.6241 35.1788C36.3745 34.2409 36.7497 33.772 37.1426 33.5001C38.2601 32.7267 39.7399 32.7267 40.8575 33.5001C41.2504 33.772 41.6256 34.2409 42.3759 35.1788L42.6593 35.533C44.2306 37.4972 45.0162 38.4792 45.1666 39.2798C45.43 40.6823 44.7518 42.0934 43.4921 42.7638C42.773 43.1465 41.5154 43.1465 39 43.1465Z" fill="url(#paint2_linear_524_6320)" fill-opacity="0.9"/>
<rect x="32.5" y="17.1465" width="9.75001" height="9.75001" rx="4.87501" fill="url(#paint3_linear_524_6320)" fill-opacity="0.9"/>
<defs>
<filter id="filter0_b_524_6320" x="-13.0567" y="-12.1603" width="71.6135" height="61.8635" filterUnits="userSpaceOnUse" color-interpolation-filters="sRGB">
<feFlood flood-opacity="0" result="BackgroundImageFix"/>
<feGaussianBlur in="BackgroundImageFix" stdDeviation="6.52837"/>
<feComposite in2="SourceAlpha" operator="in" result="effect1_backgroundBlur_524_6320"/>
<feBlend mode="normal" in="SourceGraphic" in2="effect1_backgroundBlur_524_6320" result="shape"/>
</filter>
<filter id="filter1_b_524_6320" x="-6.55674" y="-2.41025" width="71.6135" height="61.8635" filterUnits="userSpaceOnUse" color-interpolation-filters="sRGB">
<feFlood flood-opacity="0" result="BackgroundImageFix"/>
<feGaussianBlur in="BackgroundImageFix" stdDeviation="6.52837"/>
<feComposite in2="SourceAlpha" operator="in" result="effect1_backgroundBlur_524_6320"/>
<feBlend mode="normal" in="SourceGraphic" in2="effect1_backgroundBlur_524_6320" result="shape"/>
</filter>
<linearGradient id="paint0_linear_524_6320" x1="17.9534" y1="2.10553" x2="24.2156" y2="37.8857" gradientUnits="userSpaceOnUse">
<stop stop-color="#0BC7FF"/>
<stop offset="1" stop-color="#DB0EFE"/>
</linearGradient>
<linearGradient id="paint1_linear_524_6320" x1="3.25" y1="13.8965" x2="60.1251" y2="51.2715" gradientUnits="userSpaceOnUse">
<stop stop-color="white"/>
<stop offset="1" stop-color="white" stop-opacity="0"/>
</linearGradient>
<linearGradient id="paint2_linear_524_6320" x1="17.2785" y1="35.0537" x2="52.3754" y2="46.5038" gradientUnits="userSpaceOnUse">
<stop stop-color="white"/>
<stop offset="1" stop-color="white" stop-opacity="0"/>
</linearGradient>
<linearGradient id="paint3_linear_524_6320" x1="32.4622" y1="19.3723" x2="50.8818" y2="31.569" gradientUnits="userSpaceOnUse">
<stop stop-color="white"/>
<stop offset="1" stop-color="white" stop-opacity="0"/>
</linearGradient>
</defs>
</svg>
