<svg width="204" height="56" viewBox="0 0 204 56" fill="none" xmlns="http://www.w3.org/2000/svg">
<g clip-path="url(#clip0_515_793)">
<path d="M23.3146 28.321C23.1979 28.2069 23.0584 28.1193 22.9054 28.0641C22.7524 28.009 22.5896 27.9874 22.4277 28.001C22.2623 28.0222 22.1032 28.0789 21.9612 28.1672C21.8192 28.2555 21.6974 28.3733 21.6041 28.513L14.9836 38.561H5.82894L16.3774 22.561C16.5315 22.3593 16.6151 22.1117 16.6151 21.857C16.6151 21.6022 16.5315 21.3546 16.3774 21.153L6.87428 11.553C6.76638 11.4358 6.63281 11.3459 6.48428 11.2903C6.33575 11.2347 6.1764 11.2151 6.019 11.233C5.85817 11.2446 5.7016 11.2905 5.55963 11.3677C5.41767 11.445 5.29352 11.5517 5.1954 11.681C1.8017 16.4306 -0.0168214 22.1434 0.000365808 28.001C-0.0213249 32.2147 0.92188 36.3765 2.75627 40.161C3.72656 42.1836 4.9279 44.0845 6.33577 45.825C10.7909 51.2817 17.1272 54.8306 24.0687 55.7568C31.0103 56.6831 38.0415 54.918 43.7463 50.817C43.8816 50.7226 43.9945 50.5989 44.0767 50.455C44.1589 50.3111 44.2083 50.1506 44.2215 49.985C44.2345 49.8263 44.2128 49.6667 44.1581 49.5174C44.1034 49.3681 44.0169 49.2328 43.9047 49.121L23.3146 28.321Z" fill="url(#paint0_linear_515_793)"/>
<path d="M52.6784 16.0002C51.7427 13.9189 50.5391 11.9714 49.0989 10.2082C44.6472 4.73769 38.3068 1.17688 31.3576 0.244438C24.4084 -0.688008 17.3678 1.07734 11.6567 5.18419C11.5256 5.27731 11.416 5.39804 11.3355 5.53807C11.255 5.6781 11.2055 5.83409 11.1904 5.99531C11.1754 6.15652 11.1951 6.31911 11.2483 6.47188C11.3014 6.62464 11.3867 6.76395 11.4983 6.88019L32.0884 27.6802C32.1929 27.7837 32.3167 27.8653 32.4527 27.9202C32.5886 27.9751 32.7339 28.0023 32.8803 28.0002C33.0448 27.9892 33.2046 27.9402 33.3474 27.857C33.4902 27.7738 33.6122 27.6585 33.7039 27.5202L40.3561 17.4402H49.5107L38.9623 33.4402C38.7971 33.6368 38.7064 33.8863 38.7064 34.1442C38.7064 34.4021 38.7971 34.6516 38.9623 34.8482L48.4654 44.4482C48.57 44.5517 48.6938 44.6333 48.8297 44.6882C48.9656 44.7431 49.111 44.7703 49.2573 44.7682C49.4131 44.7542 49.5643 44.707 49.7008 44.6298C49.8372 44.5526 49.956 44.4471 50.0493 44.3202C52.9425 40.2631 54.7115 35.4995 55.1736 30.5211C55.6358 25.5428 54.7745 20.53 52.6784 16.0002Z" fill="url(#paint1_linear_515_793)"/>
<path d="M198.109 15.2324H204.001V40.8324H198.109V15.2324Z" fill="white"/>
<path d="M190.221 15.2324H184.677L169.219 40.8324H175.554L177.898 36.7684H189.112L190.062 40.7684H196.398L190.221 15.2324ZM180.559 31.6484L185.659 23.9364L185.976 23.1044V23.9364L187.686 31.6484H180.559Z" fill="white"/>
<path d="M91.9272 40.7364H86.8589L74.8216 25.4724V40.7364H68.9297V15.2324H74.0614L86.067 30.4964V15.2324H91.9272V40.7364Z" fill="white"/>
<path d="M101.367 32.8315C101.36 33.3241 101.475 33.8107 101.702 34.2468C101.929 34.6829 102.26 35.0545 102.666 35.3275C103.742 36.017 105.007 36.3421 106.277 36.2555C107.011 36.2668 107.743 36.2025 108.463 36.0635C108.965 35.9631 109.446 35.7792 109.889 35.5195C110.232 35.3077 110.516 35.0101 110.712 34.6555C110.895 34.2892 110.983 33.8816 110.966 33.4715C110.998 32.9478 110.853 32.4285 110.554 31.9995C110.228 31.5806 109.803 31.2506 109.318 31.0395C108.687 30.781 108.042 30.5567 107.386 30.3675L104.789 29.6635L103.205 29.2475C102.583 29.1421 101.969 28.9924 101.367 28.7995C100.743 28.5745 100.139 28.2962 99.5619 27.9675C98.9848 27.6577 98.452 27.2701 97.978 26.8155C97.5096 26.3351 97.1336 25.7708 96.8693 25.1515C96.5749 24.4545 96.4344 23.701 96.4575 22.9435C96.4348 21.763 96.6392 20.5893 97.0594 19.4875C97.4628 18.4819 98.1046 17.5918 98.9283 16.8955C99.8676 16.1462 100.944 15.5916 102.096 15.2635C103.627 14.8655 105.204 14.6824 106.784 14.7195C108.161 14.6551 109.539 14.8063 110.871 15.1675C111.941 15.5085 112.932 16.0635 113.785 16.7995C114.56 17.5064 115.167 18.3817 115.559 19.3595C115.963 20.3766 116.167 21.4635 116.161 22.5595H110.237C110.24 22.1777 110.176 21.7984 110.047 21.4395C109.892 21.0865 109.665 20.7703 109.382 20.5115C109.02 20.2291 108.613 20.0125 108.178 19.8715C107.592 19.6945 106.984 19.6082 106.372 19.6155C105.711 19.5938 105.049 19.6692 104.408 19.8395C103.967 19.9437 103.549 20.1281 103.173 20.3835C102.917 20.6022 102.711 20.8754 102.571 21.1835C102.447 21.477 102.383 21.7925 102.381 22.1115C102.383 22.532 102.528 22.9389 102.793 23.2635C103.124 23.5949 103.51 23.8656 103.933 24.0635C104.48 24.3285 105.053 24.5323 105.644 24.6715L107.798 25.1195C108.685 25.3115 109.508 25.5355 110.3 25.7915C111.061 26.0052 111.803 26.2835 112.518 26.6235C113.175 26.9108 113.801 27.2646 114.387 27.6795C114.921 28.0725 115.391 28.5476 115.781 29.0875C116.182 29.6601 116.483 30.299 116.667 30.9755C116.899 31.7535 117.005 32.5636 116.984 33.3755C117.011 34.556 116.739 35.7237 116.192 36.7675C115.643 37.7547 114.873 38.5985 113.943 39.2315C112.907 39.947 111.746 40.4574 110.522 40.7355C109.125 41.0923 107.687 41.2644 106.246 41.2475C104.598 41.3163 102.95 41.1109 101.367 40.6395C100.199 40.1823 99.1248 39.5095 98.1998 38.6555C97.3976 37.8831 96.7708 36.9442 96.3625 35.9035C95.9494 34.8891 95.7446 33.8004 95.7606 32.7035L101.367 32.8315Z" fill="white"/>
<path d="M120.119 15.2324H137.922V20.3844H126.011V26.4964H136.211V31.5844H126.011V40.7364H120.119V15.2324Z" fill="white"/>
<path d="M146.38 32.3204H146.507L147.204 30.5604L157.309 15.2324H163.169V32.3204H163.296L163.993 30.5604L173.718 15.2324H180.56L164.056 40.7364H157.436L157.404 25.5044L147.267 40.7364H140.647L140.615 15.2324H146.38V32.3204Z" fill="white"/>
</g>
<defs>
<linearGradient id="paint0_linear_515_793" x1="3.23142" y1="47.841" x2="49.6068" y2="12.3283" gradientUnits="userSpaceOnUse">
<stop stop-color="#B52EFE"/>
<stop offset="1" stop-color="#16BFFF"/>
</linearGradient>
<linearGradient id="paint1_linear_515_793" x1="2.53372" y1="46.9442" x2="48.9408" y2="11.4318" gradientUnits="userSpaceOnUse">
<stop stop-color="#B52EFE"/>
<stop offset="1" stop-color="#16BFFF"/>
</linearGradient>
<clipPath id="clip0_515_793">
<rect width="204" height="56" fill="white"/>
</clipPath>
</defs>
</svg>
